<?xml version="1.0" encoding="UTF-8"?>
<svg width="160px" height="160px" viewBox="0 0 160 160" version="1.1" xmlns="http://www.w3.org/2000/svg" xmlns:xlink="http://www.w3.org/1999/xlink">
    <title>Group 2</title>
    <g id="Page-1" stroke="none" stroke-width="1" fill="none" fill-rule="evenodd">
        <g id="Group-2">
            <rect id="Rectangle" fill="#EFEFEF" x="0" y="0" width="160" height="160" rx="40"></rect>
            <g id="Group" transform="translate(42.000000, 36.000000)" stroke-linecap="round" stroke-linejoin="round" stroke-width="5.16923077">
                <line x1="0.646153846" y1="0.682051282" x2="0.646153846" y2="48.425641" id="Line-3" stroke="#186AFF"></line>
                <path d="M0.646153846,48.4615385 C13.8711478,48.4615385 23.4235502,48.4615385 29.3033609,48.4615385 C35.1831716,48.4615385 38.7577832,52.0254834 40.0271958,59.1533733" id="Line-3-Copy" stroke="#186AFF"></path>
                <path d="M0.646153846,0.646153846 C13.2317041,0.646153846 22.3222368,0.646153846 27.9177518,0.646153846 C33.5132669,0.646153846 36.9150419,4.21009878 38.1230769,11.3379887" id="Line-3-Copy-4" stroke="#186AFF"></path>
                <path d="M38.1230769,0.682051282 C48.7345631,0.658119658 57.0890969,0.646153846 63.1866784,0.646153846 C69.2842598,0.646153846 72.9912645,4.21009878 74.3076923,11.3379887" id="Line-3-Copy-5" stroke="#186AFF" transform="translate(56.215385, 5.992071) scale(-1, 1) translate(-56.215385, -5.992071) "></path>
                <line x1="73.0153846" y1="0.681081081" x2="73.6615385" y2="50.4" id="Line-3-Copy-2" stroke="#186AFF" transform="translate(73.661538, 25.200000) scale(-1, 1) translate(-73.661538, -25.200000) "></line>
                <line x1="73.6615385" y1="50.4" x2="46.5230769" y2="50.4" id="Line-3-Copy-3" stroke="#186AFF" transform="translate(60.092308, 50.400000) scale(-1, 1) translate(-60.092308, -50.400000) "></line>
                <path d="M10.9846154,14.8615385 C18.0493948,14.179747 23.3603243,14.179747 26.9174039,14.8615385 C29.4303242,15.9404002 30.6867844,17.3961247 30.6867844,19.2287117" id="Line" stroke="#14459F"></path>
                <path d="M45.8769231,14.8615385 C52.9417025,14.179747 58.252632,14.179747 61.8097116,14.8615385 C64.3226319,15.9404002 65.5790921,17.3961247 65.5790921,19.2287117" id="Line-Copy" stroke="#14459F" transform="translate(55.728008, 16.789453) scale(-1, 1) translate(-55.728008, -16.789453) "></path>
                <line x1="38.1230769" y1="20.0307692" x2="38.1230769" y2="30.3692308" id="Line-2" stroke="#14459F"></line>
                <path d="M29.7230769,37.4769231 C32.5082351,40.3357227 35.3082351,41.7651224 38.1230769,41.7651224 C40.9379188,41.7651224 43.7379188,40.3357227 46.5230769,37.4769231" id="Line-2-Copy" stroke="#22D5A7" opacity="0.600000024"></path>
            </g>
            <path d="M49.7734375,127.457031 C54.203125,127.457031 56.8984375,125.324219 56.8984375,121.796875 C56.8984375,119.113281 55.3984375,117.601562 52.0585938,116.957031 L49.8789062,116.535156 C48.0976562,116.183594 47.3476562,115.644531 47.3476562,114.71875 C47.3476562,113.59375 48.34375,112.878906 49.8554688,112.878906 C51.3671875,112.878906 52.5039062,113.710938 52.5976562,114.90625 L56.5703125,114.90625 C56.5,111.777344 53.7578125,109.632812 49.796875,109.632812 C45.71875,109.632812 43.0703125,111.800781 43.0703125,115.105469 C43.0703125,117.765625 44.6640625,119.453125 47.7578125,120.039062 L49.984375,120.484375 C51.9179688,120.871094 52.65625,121.375 52.65625,122.3125 C52.65625,123.425781 51.5546875,124.199219 49.9492188,124.199219 C48.1679688,124.199219 46.9375,123.414062 46.8320312,122.183594 L42.7304688,122.183594 C42.8007812,125.441406 45.4960938,127.457031 49.7734375,127.457031 Z M63.90625,131.3125 L63.90625,124.996094 L64.1289062,124.996094 C64.7382812,126.378906 66.1210938,127.199219 68.0078125,127.199219 C71.2539062,127.199219 73.1640625,124.726562 73.1640625,120.472656 C73.1640625,116.207031 71.2070312,113.757812 67.9140625,113.757812 C66.109375,113.757812 64.6679688,114.625 64.0234375,116.078125 L63.8007812,116.078125 L63.8007812,113.957031 L59.7695312,113.957031 L59.7695312,131.3125 L63.90625,131.3125 Z M66.4023438,123.941406 C64.8320312,123.941406 63.8828125,122.652344 63.8828125,120.484375 C63.8828125,118.328125 64.84375,117.015625 66.4023438,117.015625 C67.9726562,117.015625 68.9101562,118.328125 68.9101562,120.472656 C68.9101562,122.640625 67.984375,123.941406 66.4023438,123.941406 Z M79.3046875,127.199219 C80.9570312,127.199219 82.3867188,126.496094 82.9726562,125.382812 L83.1953125,125.382812 L83.1953125,127 L87.2265625,127 L87.2265625,118.105469 C87.2265625,115.292969 85.1757812,113.652344 81.578125,113.652344 C78.0507812,113.652344 75.7421875,115.222656 75.5546875,117.753906 L79.28125,117.753906 C79.5507812,117.0625 80.2539062,116.699219 81.34375,116.699219 C82.4921875,116.699219 83.1484375,117.226562 83.1484375,118.105469 L83.1484375,119.125 L80.3007812,119.289062 C76.9375,119.488281 75.0859375,120.871094 75.0859375,123.25 C75.0859375,125.640625 76.796875,127.199219 79.3046875,127.199219 Z M80.8164062,124.304688 C79.7734375,124.304688 79.0820312,123.789062 79.0820312,122.957031 C79.0820312,122.171875 79.7265625,121.691406 80.9570312,121.597656 L83.1484375,121.457031 L83.1484375,122.3125 C83.1484375,123.4375 82.1289062,124.304688 80.8164062,124.304688 Z M96.3320312,127.304688 C99.8710938,127.304688 102.085938,125.382812 102.332031,122.265625 L98.5234375,122.265625 C98.3359375,123.484375 97.5742188,124.117188 96.3320312,124.117188 C94.7265625,124.117188 93.8945312,122.898438 93.8945312,120.460938 C93.8945312,118.046875 94.7148438,116.839844 96.3320312,116.839844 C97.5976562,116.839844 98.3476562,117.566406 98.5234375,118.785156 L102.332031,118.785156 C102.074219,115.585938 99.9296875,113.652344 96.3320312,113.652344 C92.03125,113.652344 89.734375,116.03125 89.734375,120.460938 C89.734375,124.914062 92.03125,127.304688 96.3320312,127.304688 Z M110.734375,127.304688 C114.109375,127.304688 116.5,125.699219 116.957031,123.15625 L113.171875,123.15625 C112.890625,123.917969 112.058594,124.363281 110.851562,124.363281 C109.269531,124.363281 108.296875,123.308594 108.261719,121.609375 L108.261719,121.398438 L117.039062,121.398438 L117.039062,120.25 C117.039062,116.089844 114.695312,113.652344 110.675781,113.652344 C106.632812,113.652344 104.183594,116.265625 104.183594,120.566406 C104.183594,124.84375 106.574219,127.304688 110.734375,127.304688 Z M113.019531,119.019531 L108.285156,119.019531 C108.390625,117.542969 109.339844,116.59375 110.699219,116.59375 C112.082031,116.59375 112.949219,117.496094 113.019531,119.019531 Z" id="Space" fill="#000000" fill-rule="nonzero"></path>
        </g>
    </g>
</svg>