<svg height="50" viewBox="0 0 50 50" width="50" xmlns="http://www.w3.org/2000/svg"><g fill="none" fill-rule="evenodd"><rect fill="#fee69b" fill-rule="nonzero" height="50" rx="6" width="50"/><g fill="#dd8843" transform="translate(10 10)"><path d="m5 6c-.55228 0-1 .44771-1 1 0 .5523.44772 1 1 1h8c.5523 0 1-.4477 1-1 0-.55229-.4477-1-1-1z" fill-rule="nonzero"/><path d="m3 0c-1.65685 0-3 1.34315-3 3v12c0 1.6569 1.34315 3 3 3h12c1.6569 0 3-1.3431 3-3v-12c0-1.65685-1.3431-3-3-3zm-1 15v-11h14v11c0 .5523-.4477 1-1 1h-12c-.55228 0-1-.4477-1-1z"/><path d="m5 6c-.55228 0-1 .44771-1 1 0 .5523.44772 1 1 1h8c.5523 0 1-.4477 1-1 0-.55229-.4477-1-1-1z" fill-rule="nonzero"/><path d="m3 0c-1.65685 0-3 1.34315-3 3v12c0 1.6569 1.34315 3 3 3h12c1.6569 0 3-1.3431 3-3v-12c0-1.65685-1.3431-3-3-3zm-1 15v-11h14v11c0 .5523-.4477 1-1 1h-12c-.55228 0-1-.4477-1-1z"/></g><g fill="#c8681a" transform="translate(23 22)"><path d="m5 6c-.55228 0-1 .44771-1 1 0 .5523.44772 1 1 1h8c.5523 0 1-.4477 1-1 0-.55229-.4477-1-1-1z" fill-rule="nonzero"/><path d="m3 0c-1.65685 0-3 1.34315-3 3v12c0 1.6569 1.34315 3 3 3h12c1.6569 0 3-1.3431 3-3v-12c0-1.65685-1.3431-3-3-3zm-1 15v-11h14v11c0 .5523-.4477 1-1 1h-12c-.55228 0-1-.4477-1-1z"/></g></g></svg>