<?xml version="1.0" encoding="UTF-8"?>
<svg width="50px" height="50px" viewBox="0 0 50 50" version="1.1" xmlns="http://www.w3.org/2000/svg" xmlns:xlink="http://www.w3.org/1999/xlink">
    <title>monologo</title>
    <g id="Page-1" stroke="none" stroke-width="1" fill="none" fill-rule="evenodd">
        <g id="monologo" fill-rule="nonzero">
            <rect id="Rectangle" fill="#2366BD" x="0" y="0" width="50" height="50" rx="5"></rect>
            <g transform="translate(9.000000, 9.000000)">
                <circle id="Oval" fill="#0F4D9D" cx="15.6000009" cy="15.6000009" r="15.6000009"></circle>
                <path d="M10.4000006,8.31987046 L10.4000006,19.2329811 C10.4000006,20.2428211 10.7550436,21.1031612 11.4660656,21.8138712 C12.1766197,22.5247112 13.0370507,22.8798713 14.0468908,22.8798713 L18.395391,22.8798713 C19.4053611,22.8798713 20.2653111,22.5247112 20.9764112,21.8138712 C21.6868612,21.1031612 22.0425412,20.2428211 22.0425412,19.2329811 L22.0425412,15.8944509 C22.0425412,14.8843508 21.6868612,14.0244008 20.9764112,13.3134307 C20.2653111,12.6028507 19.4053611,12.2473397 18.395391,12.2473397 L13.6823708,12.2473397 C13.6823708,13.0223607 14.0563808,13.6741808 14.8046608,14.2028908 C15.5524209,14.7319908 16.4689209,15.0150008 17.553901,15.0527008 L18.395391,15.0527008 C18.956341,15.0715508 19.2370111,15.3520908 19.2370111,15.8944509 L19.2370111,19.2329811 C19.2370111,19.7939311 18.956341,20.0744711 18.395391,20.0744711 L14.0468908,20.0744711 C13.4859407,20.0744711 13.2054007,19.7939311 13.2054007,19.2329811 L13.2054007,12.1913357 C13.2054007,11.1254006 12.9314387,10.2135546 12.3835667,9.45610952 C11.8355777,8.69866448 11.1744496,8.31987046 10.4000006,8.31987046 Z" id="Path" fill="#FFFFFF"></path>
            </g>
        </g>
    </g>
</svg>