<svg height="20" viewBox="0 0 20 20" width="20" xmlns="http://www.w3.org/2000/svg"><g fill="none" transform="translate(5 3)"><path d="m3.12499116 12.5593001.22493434-1.4310899-.50104876-.0116313h-2.39256161l1.66270774-10.55999607c.00516102-.03187858.02193433-.06160321.04644916-.082712s.05591102-.03274017.08859746-.03274017h4.03419528c1.33928399 0 2.26353618.279153 2.74609129.83013554.2262246.25847499.370303.52858137.43997673.82582761.07311441.31189317.07440467.68452795.00301059 1.13901316l-.00516101.03317096v.29121516l.22622459.12837592c.19052755.10123604.34191744.21711899.45804024.34980283.1935382.22099612.3186929.50187228.3715933.83487424.0546208.34247937.0365572.75000828-.0529004 1.21138615-.1032204.53073533-.2700933.99297479-.4954577 1.37120986-.20730086.34851046-.47137291.63757167-.78490471.86158333-.29933901.21281108-.65501912.37435795-1.05714838.47774795-.38965681.10166684-.83393438.15293104-1.32122043.15293104h-.31396189c-.22450425 0-.44255723.08098884-.61373097.22616563-.17160383.14819233-.28514621.35066441-.31998308.57209132l-.02365466.12880671-.39739833 2.52228523-.01806356.0926202c-.00473093.0292938-.01290255.0439407-.02494492.0538489-.01075212.0090466-.02623517.0150777-.04128814.0150777z" fill="#253b80"/><path d="m9.91258918 3.30287968c-.01204238.0771117-.02580509.15594658-.04128814.23693541-.53201487 2.73595785-2.35213364 3.68111476-4.67674185 3.68111476h-1.18359339c-.28428604 0-.52384326.20678-.56814199.48765616l-.60598945 3.84955429-.17160382 1.0911953c-.02881568.1843788.11311229.3506644.29890892.3506644h2.09924387c.248589 0 .45976063-.1809325.49889834-.4264837l.02064407-.1068364.39524791-2.51237695.025375-.13785334c.03870763-.24641283.25030934-.42734533.49889834-.42734533h.31396189c2.0338709 0 3.62604472-.82711999 4.09139642-3.22059846.1943984-.99986745.0937585-1.8347417-.4206229-2.42191073-.1556907-.17705537-.3487987-.32395533-.57459322-.44371541z" fill="#179bd7"/><path d="m9.35605948 3.08059118c-.08128603-.02369354-.16515256-.04523313-.25116951-.06461875-.08644704-.01895483-.17504451-.03575571-.26622248-.05040263-.3191229-.05169499-.66878182-.07625012-1.04338566-.07625012h-3.16198327c-.07784535 0-.15181993.01766246-.21805298.04954104-.14579883.07021904-.25418019.20850317-.28041536.37780429l-.67265259 4.26742221-.01935382.12449879c.04429873-.28087616.28385595-.48765616.56814199-.48765616h1.18359339c2.32460821 0 4.14472698-.9455877 4.67674185-3.68111476.01591313-.08098883.02924576-.15982371.04128814-.23693541-.13461654-.07151142-.28041528-.13268384-.43739622-.18480963-.03870763-.01292375-.07870551-.0254167-.11913348-.03747887z" fill="#222d65"/><path d="m4.13483022 3.31666501c.02623517-.16930112.13461653-.30758525.28041536-.3773735.06666314-.03187858.14020763-.04954104.21805298-.04954104h3.16198327c.37460384 0 .72426276.02455513 1.04338566.07625013.09117797.01464691.17977544.03144779.26622248.05040262.08601695.01938563.16988348.04092521.25116951.06461875.04042797.01206217.08042585.02455513.11956356.03704808.15698095.05212579.30277969.113729.43739622.18480963.15827124-1.01106804-.00129025-1.69947311-.54706783-2.32282865-.6016886-.68625112-1.68765266-.98005103-3.07725657-.98005103h-4.03419528c-.28385595 0-.52599368.20678-.56986233.48808695l-1.68034121 10.66855555c-.03311653.2110879.12945552.4014978.3419174.4014978h2.49062092l.62534327-3.97405308z" fill="#253b80"/></g></svg>