<svg height="20" viewBox="0 0 20 20" width="20" xmlns="http://www.w3.org/2000/svg"><g fill="none" fill-rule="evenodd" transform="translate(4 4)"><rect fill="#6772e5" fill-rule="nonzero" height="12" rx="3.888" width="12"/><path d="m5.52823 4.65535158c0-.28680291.23692414-.41565639.61932802-.41565639.63368762.01370387 1.25551886.17449776 1.81641843.46969172v-1.70003464c-.57709567-.22630628-1.1924157-.33920904-1.81226187-.33252511-1.47973675 0-2.46899896.77312088-2.46899896 2.07828195 0 2.02009006 2.77658469 1.69172151 2.77658469 2.56459993 0 .33668168-.29511604.44475234-.69830273.44475234-.71028169-.03916746-1.4017836-.24263407-2.02009006-.59438864v1.74160028c.63003437.27225075 1.3088127.41366291 1.99515067.41565639 1.51714583 0 2.56464168-.74818151 2.56464168-2.07828196.01242794-2.16556979-2.77246987-1.77485278-2.77246987-2.59369587z" fill="#fff"/></g></svg>