<svg height="80" viewBox="0 0 80 80" width="80" xmlns="http://www.w3.org/2000/svg"><g fill="none" fill-rule="evenodd"><rect fill="#efefef" height="80" rx="17" width="80"/><path d="m18.794 60.325c.8953333 0 1.6575-.1586667 2.2865-.476s1.105-.7423333 1.428-1.275.4845-1.1163333.4845-1.751c0-.782-.1756667-1.4166667-.527-1.904s-.7706667-.8585-1.258-1.1135-1.1163333-.5128333-1.887-.7735c-.5326667-.1926667-.9406667-.3513333-1.224-.476s-.5185-.2861667-.7055-.4845-.2805-.4391667-.2805-.7225c0-.3513333.1048333-.6176667.3145-.799s.4845-.272.8245-.272c.3966667 0 .7111667.1161667.9435.3485s.3768333.5468333.4335.9435h3.145c-.102-1.1106667-.5468333-1.9833333-1.3345-2.618s-1.8501667-.952-3.1875-.952c-.8273333 0-1.5611667.1388333-2.2015.4165s-1.1418333.6771667-1.5045 1.1985-.544 1.139-.544 1.853c0 .7706667.1728333 1.3968333.5185 1.8785s.7593333.8443333 1.241 1.088 1.1021667.4958333 1.8615.7565c.5213333.1813333.9293333.3371667 1.224.4675s.5411667.2975.7395.5015.2975.459.2975.765c0 .34-.1076667.612-.323.816s-.51.306-.884.306c-.4306667 0-.7848333-.1303333-1.0625-.391s-.4391667-.6176667-.4845-1.071h-3.094c.0793333 1.1786667.5553333 2.0966667 1.428 2.754s1.9833333.986 3.332.986zm8.721 4.403v-6.239c.238.5666667.6176667 1.0143333 1.139 1.343s1.1446667.493 1.87.493c.782 0 1.4818333-.1955 2.0995-.5865s1.105-.9548333 1.462-1.6915.5355-1.598.5355-2.584c0-.9973333-.1785-1.8615-.5355-2.5925s-.8443333-1.292-1.462-1.683-1.3175-.5865-2.0995-.5865c-.7253333 0-1.3486667.1643333-1.87.493s-.901.7763333-1.139 1.343v-1.717h-2.907v14.008zm2.074-6.953c-.612 0-1.1135-.2096667-1.5045-.629s-.5865-.9803333-.5865-1.683c0-.714.1955-1.2778333.5865-1.6915s.8925-.6205 1.5045-.6205c.6233333 0 1.1248333.204 1.5045.612s.5695.9746667.5695 1.7-.1898333 1.292-.5695 1.7-.8811667.612-1.5045.612zm10.149 2.55c.7253333 0 1.3486667-.1643333 1.87-.493s.9066667-.7763333 1.156-1.343v1.717h2.89v-9.486h-2.89v1.717c-.2493333-.5666667-.6346667-1.0143333-1.156-1.343s-1.1446667-.493-1.87-.493c-.782 0-1.4818333.1955-2.0995.5865s-1.105.952-1.462 1.683-.5355 1.5951667-.5355 2.5925c0 .986.1785 1.8473333.5355 2.584s.8443333 1.3005 1.462 1.6915 1.3175.5865 2.0995.5865zm.935-2.55c-.6233333 0-1.1248333-.204-1.5045-.612s-.5695-.9746667-.5695-1.7.1898333-1.292.5695-1.7.8811667-.612 1.5045-.612c.612 0 1.1135.2068333 1.5045.6205s.5865.9775.5865 1.6915c0 .7026667-.1955 1.2636667-.5865 1.683s-.8925.629-1.5045.629zm11.271 2.55c1.224 0 2.2496667-.3371667 3.077-1.0115s1.3486667-1.6008333 1.564-2.7795h-3.077c-.0906667.408-.2776667.7253333-.561.952s-.6403333.34-1.071.34c-.51 0-.9293333-.2011667-1.258-.6035s-.493-.9888333-.493-1.7595.1643333-1.3571667.493-1.7595.748-.6035 1.258-.6035c.4306667 0 .7876667.1133333 1.071.34s.4703333.544.561.952h3.077c-.2153333-1.1786667-.7366667-2.1051667-1.564-2.7795s-1.853-1.0115-3.077-1.0115c-.9293333 0-1.7566667.1955-2.482.5865s-1.2891667.952-1.6915 1.683-.6035 1.5951667-.6035 2.5925c0 .986.204 1.8473333.612 2.584s.9718333 1.3005 1.6915 1.6915 1.5441667.5865 2.4735.5865zm10.438 0c.7933333 0 1.513-.1501667 2.159-.4505s1.1786667-.714 1.598-1.241.6913333-1.1248333.816-1.7935h-3.077c-.0906667.34-.2776667.6176667-.561.833s-.6403333.323-1.071.323c-.51 0-.9293333-.1558333-1.258-.4675s-.51-.8245-.544-1.5385h6.579c.0566667-.2833333.085-.544.085-.782 0-.9066667-.1955-1.7085-.5865-2.4055s-.9435-1.2381667-1.6575-1.6235-1.5413333-.578-2.482-.578c-.9293333 0-1.7566667.1955-2.482.5865s-1.2891667.952-1.6915 1.683-.6035 1.5951667-.6035 2.5925c0 .986.204 1.8473333.612 2.584s.9718333 1.3005 1.6915 1.6915 1.5441667.5865 2.4735.5865zm1.785-5.559h-3.706c.0453333-.612.2436667-1.0766667.595-1.394s.7933333-.476 1.326-.476c.51 0 .9378333.1558333 1.2835.4675s.5128333.7791667.5015 1.4025z" fill="#212121" fill-rule="nonzero"/><g stroke-linecap="round" stroke-linejoin="round" transform="translate(26 17)"><path d="m3.81578947 10.9703947v9.0625s2.38486842 3.8157895 10.01644733 3.8157895c7.631579 0 10.0164474-3.8157895 10.0164474-3.8157895v-9.0625" stroke="#669cff" stroke-width="2.861842"/><g stroke="#186aff"><path d="m0 8.10855263 13.8322368-8.10855263 13.8324277 8.10855263-13.8324277 8.10855267z" stroke-width="2.861842"/><path d="m14.7861842 8.10855263c0 .52676974-.4271776.95394737-.9539474.95394737-.5267697 0-.9539473-.42717763-.9539473-.95394737 0-.52684605.4271776-.95394737.9539473-.95394737.5267698 0 .9539474.42710132.9539474.95394737z" stroke-width="1.907895"/></g></g></g></svg>