<?xml version="1.0" encoding="UTF-8"?>
<svg width="50px" height="50px" viewBox="0 0 50 50" version="1.1" xmlns="http://www.w3.org/2000/svg" xmlns:xlink="http://www.w3.org/1999/xlink">
    <title>icon</title>
    <g id="Page-1" stroke="none" stroke-width="1" fill="none" fill-rule="evenodd">
        <g id="icon">
            <rect id="Rectangle" fill="#FFEDEB" fill-rule="nonzero" x="0" y="0" width="50" height="50" rx="5"></rect>
            <g id="file" transform="translate(7.000000, 10.000000)">
                <path d="M5,4.5 C5,2.014725 7.014725,0 9.5,0 L21.5,0 C27.299,0 32,4.701015 32,10.5 L32,25.5 C32,27.98535 29.98535,30 27.5,30 L9.5,30 C7.014725,30 5,27.98535 5,25.5 L5,4.5 Z M20,3 L9.5,3 C8.67158,3 8,3.67158 8,4.5 L8,25.5 C8,26.32845 8.67158,27 9.5,27 L27.5,27 C28.32845,27 29,26.32845 29,25.5 L29,10.5 L20,10.5 L20,3 Z M28.376,7.5 C27.41195,5.29359 25.41695,3.64065 23,3.15003 L23,7.5 L28.376,7.5 Z" id="Shape" fill="#FE6F62"></path>
                <g id="lock" transform="translate(0.000000, 12.000000)">
                    <circle id="Oval" fill="#FE6F62" cx="11" cy="11" r="11"></circle>
                    <path d="M14.3333333,9.14285714 C15.2538333,9.14285714 16,9.91034286 16,10.8571429 L16,14.2857143 C16,15.2325143 15.2538333,16 14.3333333,16 L7.66666667,16 C6.74619444,16 6,15.2325143 6,14.2857143 L6,10.8571429 C6,9.91034286 6.74619444,9.14285714 7.66666667,9.14285714 L7.66666667,7.42857143 C7.66666667,5.53502286 9.15905,4 11,4 C12.8409444,4 14.3333333,5.53502286 14.3333333,7.42857143 L14.3333333,9.14285714 Z M11,5.14285714 C12.2272778,5.14285714 13.2222222,6.16620571 13.2222222,7.42857143 L13.2222222,9.14285714 L8.77777778,9.14285714 L8.77777778,7.42857143 C8.77777778,6.16620571 9.7727,5.14285714 11,5.14285714 Z M14.3333333,10.2857143 L7.66666667,10.2857143 C7.35984444,10.2857143 7.11111111,10.5415429 7.11111111,10.8571429 L7.11111111,14.2857143 C7.11111111,14.6013143 7.35984444,14.8571429 7.66666667,14.8571429 L14.3333333,14.8571429 C14.6401667,14.8571429 14.8888889,14.6013143 14.8888889,14.2857143 L14.8888889,10.8571429 C14.8888889,10.5415429 14.6401667,10.2857143 14.3333333,10.2857143 Z" id="Shape" fill="#FFFFFF"></path>
                </g>
            </g>
        </g>
    </g>
</svg>